<svg xmlns="http://www.w3.org/2000/svg" width="31.043" height="23.864" viewBox="0 0 31.043 23.864">
  <path id="Path_114" data-name="Path 114" d="M31.379,12.881q-2.359,5.193-4.74,10.378a2.078,2.078,0,0,1-2.95,1.1q-5.222-2.379-10.439-4.767a2.065,2.065,0,0,1-1.033-2.829q2.012-4.437,4.047-8.862c.245-.534.487-1.07.733-1.6a2.083,2.083,0,0,1,2.866-1.075Q25.083,7.606,30.3,9.991a2.16,2.16,0,0,1,1.313,2.092A4.86,4.86,0,0,1,31.379,12.881ZM19.846,7.6a1.961,1.961,0,0,0-1.954,2,1.965,1.965,0,0,0,3.929-.014A1.98,1.98,0,0,0,19.846,7.6Zm1.969,5.249a1.971,1.971,0,0,0-1.987,1.967,1.993,1.993,0,0,0,1.964,1.966,1.966,1.966,0,0,0,.023-3.933ZM23.8,18.068a1.968,1.968,0,0,0-2,1.951,1.947,1.947,0,0,0,1.924,1.987A1.97,1.97,0,0,0,25.733,20.1,2,2,0,0,0,23.8,18.068Zm-13.2-.913a2.459,2.459,0,0,0,.01,2.036c-.809.369-1.569.763-2.364,1.067a2.047,2.047,0,0,1-2.6-1.161L1.373,9.92c-.2-.426-.408-.847-.6-1.277a2.062,2.062,0,0,1,1.036-2.8c1.543-.733,3.1-1.448,4.644-2.171L12.177,1a2.1,2.1,0,0,1,3,1.1c.356.766.717,1.528,1.059,2.3a.548.548,0,0,1,.005.4Q13.432,10.98,10.6,17.154ZM5.171,6.685A1.965,1.965,0,1,0,7.108,8.656,1.955,1.955,0,0,0,5.171,6.685Zm3.312,7.152a1.969,1.969,0,1,0,1.966,1.954A1.968,1.968,0,0,0,8.483,13.837ZM12.294,3.344A1.965,1.965,0,1,0,14.277,5.31,1.97,1.97,0,0,0,12.294,3.344Z" transform="translate(-0.572 -0.742)" fill="#335aa4" fill-rule="evenodd"/>
</svg>
