<svg xmlns="http://www.w3.org/2000/svg" xmlns:xlink="http://www.w3.org/1999/xlink" width="38.632" height="18.241" viewBox="0 0 38.632 18.241">
  <defs>
    <clipPath id="clip-path">
      <rect id="Rectangle_367" data-name="Rectangle 367" width="38.632" height="18.241" transform="translate(0 0)" fill="#335aa4"/>
    </clipPath>
  </defs>
  <g id="Group_763" data-name="Group 763" transform="translate(-6.623 -3.128)">
    <g id="Group_762" data-name="Group 762" transform="translate(6.623 3.127)" clip-path="url(#clip-path)">
      <path id="Path_116" data-name="Path 116" d="M15.148,18.241H3.076a2.869,2.869,0,0,1-3.07-3.049q-.012-6.11,0-12.219A2.86,2.86,0,0,1,3.005,0Q15.171,0,27.333,0a2.84,2.84,0,0,1,2.95,2.937q.009,6.184,0,12.367a2.838,2.838,0,0,1-2.953,2.935q-6.091,0-12.182,0m6.724-8.064a.939.939,0,0,1,.15-.03c.517,0,1.034-.007,1.553,0,.846,0,.831.005.835-.833,0-.317-.075-.435-.41-.423-.7.025-1.4.007-2.122.007V6.979H24.8V5.817H20.512v7.511h4.426V12.076H21.871ZM14.288,5.8A1.315,1.315,0,0,0,14.3,6q.955,3.553,1.909,7.106a.287.287,0,0,0,.343.244,7.2,7.2,0,0,1,.85,0c.249.019.337-.087.4-.315.6-2.276,1.218-4.548,1.825-6.822.034-.123.042-.251.07-.42-.386,0-.718.014-1.048,0-.246-.015-.349.083-.4.316-.332,1.427-.677,2.851-1.013,4.277-.076.321-.136.646-.2.969a5.685,5.685,0,0,1-.239-.841c-.35-1.474-.7-2.948-1.06-4.418-.028-.113-.165-.273-.263-.281-.378-.033-.76-.013-1.18-.013M8.336,12.087c0-.432,0-.811,0-1.19,0-1.6,0-3.208-.012-4.813,0-.1-.111-.276-.179-.28-.388-.028-.779-.013-1.2-.013v3.6q0,1.8,0,3.591c0,.167-.046.358.237.357,1.27-.006,2.542,0,3.813-.01.079,0,.221-.1.225-.161.022-.351.01-.705.01-1.086Zm3.817,1.233h1.336v-7.5H12.154ZM5.185,3.644A1.328,1.328,0,0,0,3.864,2.3a1.343,1.343,0,1,0-.011,2.685A1.332,1.332,0,0,0,5.185,3.644" transform="translate(0 0)" fill="#335aa4"/>
      <path id="Path_117" data-name="Path 117" d="M49.488,10.074c0,1.629.018,3.259-.015,4.888a2.016,2.016,0,0,1-.322,1.025,1.131,1.131,0,0,1-1.4.359q-2.245-.956-4.471-1.96a1.235,1.235,0,0,1-.748-1.218q.007-3.111,0-6.221a1.253,1.253,0,0,1,.795-1.226c1.429-.64,2.859-1.276,4.3-1.888a1.26,1.26,0,0,1,1.851,1.2c.022,1.678.006,3.358.006,5.036h0" transform="translate(-10.86 -0.945)" fill="#335aa4"/>
    </g>
  </g>
</svg>
