<svg xmlns="http://www.w3.org/2000/svg" xmlns:xlink="http://www.w3.org/1999/xlink" width="19.51" height="26.749" viewBox="0 0 19.51 26.749">
  <defs>
    <clipPath id="clip-path">
      <rect id="Rectangle_366" data-name="Rectangle 366" width="19.51" height="26.749" fill="#335aa4"/>
    </clipPath>
  </defs>
  <g id="Group_761" data-name="Group 761" transform="translate(0 0)">
    <g id="Group_761-2" data-name="Group 761" transform="translate(0 0)" clip-path="url(#clip-path)">
      <path id="Path_115" data-name="Path 115" d="M11.791,26.74c-.277-.857-.55-1.716-.832-2.571q-.671-2.04-1.352-4.077c-.016-.048-.035-.095-.079-.209L7.254,26.749,5.149,21.59.383,24.479c.977-2.955,1.933-5.848,2.9-8.768a2.586,2.586,0,0,1-2.036-3.954,2.6,2.6,0,0,1,.148-4.527A2.6,2.6,0,0,1,3.773,3.385,2.558,2.558,0,0,1,5.13,1.16a2.537,2.537,0,0,1,2.622.095,2.6,2.6,0,0,1,4.522.135,2.6,2.6,0,0,1,3.845,2.374A2.6,2.6,0,0,1,18.26,7.735a2.618,2.618,0,0,1-.133,4.54,2.6,2.6,0,0,1-2.21,3.83l2.768,8.374L13.933,21.6c-.039.076-.073.133-.1.194q-.988,2.423-1.975,4.848a.455.455,0,0,0-.017.1Zm.993-11.056.1.033a6.652,6.652,0,0,0,3.6-5.611,6.342,6.342,0,0,0-1.824-4.97A6.475,6.475,0,0,0,7.712,3.33a6.62,6.62,0,0,0-4.651,7.2,6.557,6.557,0,0,0,3.518,5.15.464.464,0,0,0,.556.016.521.521,0,0,0,0-.1,3.62,3.62,0,0,1,.522-2.421A11.435,11.435,0,0,1,9.6,10.706c.088-.09.173-.184.288-.308a7.223,7.223,0,0,1-.851-.008,6.841,6.841,0,0,1-.783-.19.808.808,0,0,0-.777.178,3.7,3.7,0,0,1-.468.374,1.234,1.234,0,0,1-1.777-.42,3.732,3.732,0,0,1-.124-.857.714.714,0,0,1,.317-.715A17.423,17.423,0,0,0,7.069,7.273,3.09,3.09,0,0,1,8.481,6.217a.344.344,0,0,0,.274-.367c-.027-.26.107-.324.319-.361.432-.077.443-.1.432-.546-.006-.252,0-.5,0-.756l.115-.034a8.356,8.356,0,0,1,.671.783,1.408,1.408,0,0,0,.746.566,3.96,3.96,0,0,1,2.072,1.63,5.566,5.566,0,0,1,.642,4.631c-.287,1.082-.6,2.157-.882,3.239a4.86,4.86,0,0,0-.085.682M7.115,23.14a.649.649,0,0,0,.071-.112q.6-1.8,1.195-3.6c.045-.133-.008-.187-.11-.271a8.951,8.951,0,0,1-.837-.769.436.436,0,0,0-.542-.144,2.435,2.435,0,0,1-2.441-.323c-.157-.116-.3-.251-.467-.394-.457,1.381-.9,2.734-1.376,4.163l3.139-1.9L7.115,23.14m3.54-3.819,1.276,3.86,1.389-3.4,3.14,1.9c-.449-1.358-.88-2.662-1.318-3.987a2.568,2.568,0,0,1-3.34.58l-1.147,1.041" transform="translate(0 0)" fill="#335aa4"/>
    </g>
  </g>
</svg>
