<svg xmlns="http://www.w3.org/2000/svg" xmlns:xlink="http://www.w3.org/1999/xlink" width="34.176" height="20.737" viewBox="0 0 34.176 20.737">
  <defs>
    <clipPath id="clip-path">
      <rect id="Rectangle_365" data-name="Rectangle 365" width="34.176" height="20.737" fill="#3b5b9f"/>
    </clipPath>
  </defs>
  <g id="Group_760" data-name="Group 760" transform="translate(0 0)">
    <g id="Group_759" data-name="Group 759" transform="translate(0 0)" clip-path="url(#clip-path)">
      <path id="Path_10" data-name="Path 10" d="M66.691,34.858c0,1.1.007,2.2-.009,3.3a.588.588,0,0,1-.193.408,14.316,14.316,0,0,1-7.144,2.882,14.682,14.682,0,0,1-10.725-2.859.579.579,0,0,1-.207-.4c-.013-2.222-.005-4.445-.015-6.667a.508.508,0,0,1,.261-.458,14.749,14.749,0,0,1,10.92-2.785,14.307,14.307,0,0,1,6.9,2.844.635.635,0,0,1,.2.443c.017,1.1.009,2.2.009,3.3M56.935,34.2H55.2c0-.254.01-.491,0-.726-.024-.457-.263-.714-.64-.706s-.6.278-.611.736c-.006.233,0,.466,0,.714-.558,0-1.059,0-1.56,0a1.377,1.377,0,0,1-.169-.026c0-.258.005-.506,0-.753a.613.613,0,1,0-1.221,0c-.007.257,0,.514,0,.785-.417,0-.775-.009-1.133,0a.613.613,0,0,0-.658.645.591.591,0,0,0,.639.583c.377.016.755,0,1.153,0,0,.312-.006.563,0,.813a.612.612,0,1,0,1.219,0c.008-.258,0-.516,0-.774h1.729c0,.246,0,.46,0,.674.011.472.256.767.631.763s.6-.282.621-.737c.011-.233,0-.467,0-.7h1.725c0,.276-.011.525,0,.773a.63.63,0,0,0,.6.669.646.646,0,0,0,.629-.689c.009-.247,0-.495,0-.755h1.729c0,.275-.006.525,0,.775a.636.636,0,0,0,.605.671.629.629,0,0,0,.618-.655c.011-.258,0-.517,0-.784h1.728c0,.258-.008.485,0,.71.019.444.274.731.632.727s.6-.289.621-.738c.009-.233,0-.468,0-.733.4,0,.745.009,1.089,0,.427-.014.7-.26.7-.61s-.289-.615-.731-.623c-.343-.006-.686,0-1.059,0,0-.279.01-.517,0-.753-.023-.435-.254-.691-.613-.7-.377-.007-.619.255-.639.707-.011.235,0,.471,0,.717H61.121c0-.251,0-.476,0-.7-.011-.462-.234-.723-.612-.724s-.609.265-.616.721c0,.235,0,.47,0,.706H58.159c0-.3.018-.573,0-.844a.607.607,0,0,0-.61-.583.58.58,0,0,0-.605.576c-.022.271,0,.546,0,.856" transform="translate(-35.91 -20.874)" fill="#3b5b9f"/>
      <path id="Path_11" data-name="Path 11" d="M19.7,9.739H16.418A11.574,11.574,0,0,0,13.5,2.683C14.45,1.428,17.743.04,19.7.071Z" transform="translate(-10.016 -0.052)" fill="#3b5b9f"/>
      <path id="Path_12" data-name="Path 12" d="M42.463,0a10.279,10.279,0,0,1,6.2,2.559c-.435.615-.88,1.19-1.265,1.8a11.4,11.4,0,0,0-1.288,3.014.72.72,0,0,1-.275.373q-1.371.907-2.763,1.782a3.679,3.679,0,0,1-.609.239Z" transform="translate(-31.506 0)" fill="#3b5b9f"/>
      <path id="Path_13" data-name="Path 13" d="M16.363,42.535H19.74a3.5,3.5,0,0,1-.254.5c-.49.661-1,1.307-1.488,1.97a.689.689,0,0,0-.007,1.032c.5.682,1.025,1.348,1.532,2.027a.649.649,0,0,1,.147.343c.01,1.23,0,2.461,0,3.691a.367.367,0,0,1-.029.1,9.971,9.971,0,0,1-6.209-2.582,11.568,11.568,0,0,0,2.928-7.082" transform="translate(-9.968 -31.559)" fill="#3b5b9f"/>
      <path id="Path_14" data-name="Path 14" d="M2.572,13.458a10.266,10.266,0,0,1,2.573,6.206H0a10.234,10.234,0,0,1,2.572-6.206" transform="translate(0 -9.985)" fill="#3b5b9f"/>
      <path id="Path_15" data-name="Path 15" d="M.1,42.542H5.217a10.222,10.222,0,0,1-2.554,6.192A9.883,9.883,0,0,1,.1,42.542" transform="translate(-0.073 -31.564)" fill="#3b5b9f"/>
      <path id="Path_16" data-name="Path 16" d="M62.244,16.761a10.126,10.126,0,0,1,2.066-3.505l1.7,2.615-3.765.891" transform="translate(-46.182 -9.835)" fill="#3b5b9f"/>
      <path id="Path_17" data-name="Path 17" d="M124.123,49.425V44.59l.087-.064L126.269,47l-2.055,2.482-.092-.06" transform="translate(-92.093 -33.036)" fill="#3b5b9f"/>
      <path id="Path_18" data-name="Path 18" d="M37.707,49.543a14,14,0,0,1-1.978-2.373.248.248,0,0,1,.014-.222,13.538,13.538,0,0,1,1.964-2.334Z" transform="translate(-26.494 -33.102)" fill="#3b5b9f"/>
      <path id="Path_19" data-name="Path 19" d="M45.5,71.822l-3.032.638V69.713L45.5,71.822" transform="translate(-31.506 -51.724)" fill="#3b5b9f"/>
    </g>
  </g>
</svg>
